<svg width="40"
  height="40"
  viewBox="0 0 40 40"
  fill="none"
  xmlns="http://www.w3.org/2000/svg">
  <path d="M12 13.3333H18.6667C19.0203 13.3333 19.3594 13.4738 19.6095 13.7239C19.8595 13.9739 20 14.3131 20 14.6667C20 15.0203 19.8595 15.3594 19.6095 15.6095C19.3594 15.8595 19.0203 16 18.6667 16H12C11.6464 16 11.3072 15.8595 11.0572 15.6095C10.8071 15.3594 10.6667 15.0203 10.6667 14.6667C10.6667 14.3131 10.8071 13.9739 11.0572 13.7239C11.3072 13.4738 11.6464 13.3333 12 13.3333ZM21.3333 24H28C28.3536 24 28.6928 24.1405 28.9428 24.3905C29.1928 24.6406 29.3333 24.9797 29.3333 25.3333C29.3333 25.687 29.1928 26.0261 28.9428 26.2762C28.6928 26.5262 28.3536 26.6667 28 26.6667H21.3333C20.9797 26.6667 20.6406 26.5262 20.3905 26.2762C20.1405 26.0261 20 25.687 20 25.3333C20 24.9797 20.1405 24.6406 20.3905 24.3905C20.6406 24.1405 20.9797 24 21.3333 24ZM12 18.6667H28C28.3536 18.6667 28.6928 18.8072 28.9428 19.0572C29.1928 19.3072 29.3333 19.6464 29.3333 20C29.3333 20.3536 29.1928 20.6928 28.9428 20.9428C28.6928 21.1929 28.3536 21.3333 28 21.3333H12C11.6464 21.3333 11.3072 21.1929 11.0572 20.9428C10.8071 20.6928 10.6667 20.3536 10.6667 20C10.6667 19.6464 10.8071 19.3072 11.0572 19.0572C11.3072 18.8072 11.6464 18.6667 12 18.6667Z"
    fill="#ffc400"/>
  <path d="M20 6.66666C12.6267 6.66666 6.66666 12.6267 6.66666 20C6.66666 27.3733 12.6267 33.3333 20 33.3333C27.3733 33.3333 33.3333 27.3733 33.3333 20C33.3333 12.6267 27.3733 6.66666 20 6.66666ZM25.7333 25.7333C25.61 25.8569 25.4635 25.955 25.3022 26.0219C25.1409 26.0888 24.968 26.1233 24.7933 26.1233C24.6187 26.1233 24.4458 26.0888 24.2845 26.0219C24.1232 25.955 23.9767 25.8569 23.8533 25.7333L20 21.88L16.1467 25.7333C15.8974 25.9826 15.5592 26.1227 15.2067 26.1227C14.8541 26.1227 14.516 25.9826 14.2667 25.7333C14.0174 25.484 13.8773 25.1459 13.8773 24.7933C13.8773 24.6188 13.9117 24.4459 13.9785 24.2846C14.0453 24.1233 14.1432 23.9768 14.2667 23.8533L18.12 20L14.2667 16.1467C14.0174 15.8974 13.8773 15.5592 13.8773 15.2067C13.8773 14.8541 14.0174 14.516 14.2667 14.2667C14.516 14.0174 14.8541 13.8773 15.2067 13.8773C15.5592 13.8773 15.8974 14.0174 16.1467 14.2667L20 18.12L23.8533 14.2667C23.9768 14.1432 24.1233 14.0453 24.2846 13.9785C24.4459 13.9117 24.6188 13.8773 24.7933 13.8773C24.9679 13.8773 25.1408 13.9117 25.302 13.9785C25.4633 14.0453 25.6099 14.1432 25.7333 14.2667C25.8568 14.3901 25.9547 14.5366 26.0215 14.6979C26.0883 14.8592 26.1227 15.0321 26.1227 15.2067C26.1227 15.3812 26.0883 15.5541 26.0215 15.7154C25.9547 15.8767 25.8568 16.0232 25.7333 16.1467L21.88 20L25.7333 23.8533C26.24 24.36 26.24 25.2133 25.7333 25.7333Z"
    fill="#ffc400"/>
</svg>
