<svg xmlns="http://www.w3.org/2000/svg" x="0px" y="0px" width="50" height="50" viewBox="0 0 172 172" style=" fill:#000000;"><g fill="none" fill-rule="nonzero" stroke="none" stroke-width="1" stroke-linecap="butt" stroke-linejoin="miter" stroke-miterlimit="10" stroke-dasharray="" stroke-dashoffset="0" font-family="none" font-weight="none" font-size="none" text-anchor="none" style="mix-blend-mode: normal"><path d="M0,172v-172h172v172z" fill="none"></path><path d="M85.14,86.86v-1.72h1.72v1.72z" fill="#e74c3c"></path><g fill="#e74c3c"><path d="M118.25,21.5c-20.7475,0 -32.25,14.97833 -32.25,14.97833c0,0 -11.5025,-14.97833 -32.25,-14.97833c-21.77233,0 -39.41667,17.64433 -39.41667,39.41667c0,29.89217 35.20267,58.85983 45.01383,68.01167c11.30183,10.535 26.65283,24.08 26.65283,24.08c0,0 15.351,-13.545 26.65283,-24.08c9.81117,-9.15183 45.01383,-38.1195 45.01383,-68.01167c0,-21.77233 -17.64433,-39.41667 -39.41667,-39.41667z"></path></g></g></svg>