<svg width="40"
  height="40"
  viewBox="0 0 40 40"
  fill="none"
  xmlns="http://www.w3.org/2000/svg">
<path d="M10 11.6667H18.3333C18.7754 11.6667 19.1993 11.8423 19.5118 12.1548C19.8244 12.4674 20 12.8913 20 13.3333C20 13.7754 19.8244 14.1993 19.5118 14.5118C19.1993 14.8244 18.7754 15 18.3333 15H10C9.55797 15 9.13404 14.8244 8.82148 14.5118C8.50892 14.1993 8.33333 13.7754 8.33333 13.3333C8.33333 12.8913 8.50892 12.4674 8.82148 12.1548C9.13404 11.8423 9.55797 11.6667 10 11.6667ZM21.6667 25H30C30.442 25 30.8659 25.1756 31.1785 25.4881C31.4911 25.8007 31.6667 26.2246 31.6667 26.6667C31.6667 27.1087 31.4911 27.5326 31.1785 27.8452C30.8659 28.1577 30.442 28.3333 30 28.3333H21.6667C21.2246 28.3333 20.8007 28.1577 20.4882 27.8452C20.1756 27.5326 20 27.1087 20 26.6667C20 26.2246 20.1756 25.8007 20.4882 25.4881C20.8007 25.1756 21.2246 25 21.6667 25ZM10 18.3333H30C30.442 18.3333 30.8659 18.5089 31.1785 18.8215C31.4911 19.134 31.6667 19.558 31.6667 20C31.6667 20.442 31.4911 20.8659 31.1785 21.1785C30.8659 21.4911 30.442 21.6667 30 21.6667H10C9.55797 21.6667 9.13404 21.4911 8.82148 21.1785C8.50892 20.8659 8.33333 20.442 8.33333 20C8.33333 19.558 8.50892 19.134 8.82148 18.8215C9.13404 18.5089 9.55797 18.3333 10 18.3333Z"
  fill="#ffc400"/>
</svg>
